<svg xmlns="http://www.w3.org/2000/svg" width="68.824" height="67.869" viewBox="0 0 68.824 67.869">
  <path id="Path_5" data-name="Path 5" d="M68.074,24.311v3.058a7.6,7.6,0,0,1-3.994,6.687L42.214,45.83M2.25,24.311v3.058a7.6,7.6,0,0,0,3.994,6.687L28.11,45.83M57.947,54.3,42.217,45.83m0,0-3.453-1.857a7.6,7.6,0,0,0-7.2,0L28.11,45.83m0,0L12.377,54.3m55.7,5.452a7.6,7.6,0,0,1-7.6,7.6H9.845a7.6,7.6,0,0,1-7.6-7.6V23.784A7.6,7.6,0,0,1,6.243,17.1L31.56,3.463a7.6,7.6,0,0,1,7.2,0L64.081,17.1a7.6,7.6,0,0,1,3.993,6.684v35.97Z" transform="translate(-0.75 -0.981)" fill="none" stroke="#fff" stroke-linecap="round" stroke-linejoin="round" stroke-width="3"/>
</svg>
