<svg xmlns="http://www.w3.org/2000/svg" width="36" height="36" viewBox="0 0 36 36">
  <g id="instagram" transform="translate(-554 -504)">
    <path id="icons8-instagram" d="M8,3A5,5,0,0,0,3,8v8a5,5,0,0,0,5,5h8a5,5,0,0,0,5-5V8a5,5,0,0,0-5-5ZM18,5a1,1,0,1,1-1,1A1,1,0,0,1,18,5ZM12,7a5,5,0,1,1-5,5A5,5,0,0,1,12,7Zm0,2a3,3,0,1,0,3,3,3,3,0,0,0-3-3Z" transform="translate(560 510)" fill="#fff"/>
    <rect id="Rectangle_17" data-name="Rectangle 17" width="36" height="36" rx="18" transform="translate(554 504)" fill="none"/>
  </g>
</svg>
