<svg xmlns="http://www.w3.org/2000/svg" width="36" height="36" viewBox="0 0 36 36">
  <g id="youtube" transform="translate(-710 -504)">
    <path id="icons8-youtube" d="M21.582,6.186a2.506,2.506,0,0,0-1.768-1.768C18.254,4,12,4,12,4s-6.254,0-7.814.418A2.506,2.506,0,0,0,2.418,6.186,35.643,35.643,0,0,0,2,12a35.643,35.643,0,0,0,.418,5.814,2.506,2.506,0,0,0,1.768,1.768C5.746,20,12,20,12,20s6.254,0,7.814-.418a2.5,2.5,0,0,0,1.768-1.768A35.643,35.643,0,0,0,22,12,35.643,35.643,0,0,0,21.582,6.186ZM10,15.464V8.536L16,12Z" transform="translate(716 510)" fill="#fff"/>
    <rect id="Rectangle_17" data-name="Rectangle 17" width="36" height="36" rx="18" transform="translate(710 504)" fill="none"/>
  </g>
</svg>
